<svg xmlns="http://www.w3.org/2000/svg" width="1000" height="320" viewBox="0 0 1000 320"><rect width="1000" height="320" fill="#191b1d" rx="14" /><rect x="20" y="20" width="230" height="280" rx="10" fill="#25282c" stroke="#393d42" /><svg width="76" height="76" viewBox="0 0 24 24" fill="none" stroke="#d7dce3" stroke-width="2" stroke-linecap="round" stroke-linejoin="round" x="97" y="65">
  <path d="m7 11 2-2-2-2" />
  <path d="M11 13h4" />
  <rect width="18" height="18" x="3" y="3" rx="2" ry="2" />
</svg><text x="135" y="190" text-anchor="middle" fill="#d7dce3" font-family="Arial" font-size="13">A · Lucide Square Terminal</text><svg width="18" height="18" viewBox="0 0 24 24" fill="none" stroke="#aeb5be" stroke-width="2" stroke-linecap="round" stroke-linejoin="round" x="65" y="232">
  <path d="m7 11 2-2-2-2" />
  <path d="M11 13h4" />
  <rect width="18" height="18" x="3" y="3" rx="2" ry="2" />
</svg><text x="94" y="246" fill="#aeb5be" font-family="Arial" font-size="14">Terminal 1</text><rect x="265" y="20" width="230" height="280" rx="10" fill="#25282c" stroke="#393d42" /><svg width="76" height="76" viewBox="0 0 24 24" fill="none" stroke="#d7dce3" stroke-width="2" stroke-linecap="round" stroke-linejoin="round" x="342" y="65">
  <path d="M8 9l3 3l-3 3" />
  <path d="M13 15l3 0" />
  <path d="M3 6a2 2 0 0 1 2 -2h14a2 2 0 0 1 2 2v12a2 2 0 0 1 -2 2h-14a2 2 0 0 1 -2 -2l0 -12" />
</svg><text x="380" y="190" text-anchor="middle" fill="#d7dce3" font-family="Arial" font-size="13">B · Tabler Terminal 2</text><svg width="18" height="18" viewBox="0 0 24 24" fill="none" stroke="#aeb5be" stroke-width="2" stroke-linecap="round" stroke-linejoin="round" x="310" y="232">
  <path d="M8 9l3 3l-3 3" />
  <path d="M13 15l3 0" />
  <path d="M3 6a2 2 0 0 1 2 -2h14a2 2 0 0 1 2 2v12a2 2 0 0 1 -2 2h-14a2 2 0 0 1 -2 -2l0 -12" />
</svg><text x="339" y="246" fill="#aeb5be" font-family="Arial" font-size="14">Terminal 1</text><rect x="510" y="20" width="230" height="280" rx="10" fill="#25282c" stroke="#393d42" /><svg viewBox="0 0 256 256" fill="#d7dce3" x="587" y="65" width="76" height="76"><path d="M128,128a8,8,0,0,1-3,6.25l-40,32a8,8,0,1,1-10-12.5L107.19,128,75,102.25a8,8,0,1,1,10-12.5l40,32A8,8,0,0,1,128,128Zm48,24H136a8,8,0,0,0,0,16h40a8,8,0,0,0,0-16Zm56-96V200a16,16,0,0,1-16,16H40a16,16,0,0,1-16-16V56A16,16,0,0,1,40,40H216A16,16,0,0,1,232,56ZM216,200V56H40V200H216Z" /></svg><text x="625" y="190" text-anchor="middle" fill="#d7dce3" font-family="Arial" font-size="13">C · Phosphor Terminal Window</text><svg viewBox="0 0 256 256" fill="#aeb5be" x="555" y="232" width="18" height="18"><path d="M128,128a8,8,0,0,1-3,6.25l-40,32a8,8,0,1,1-10-12.5L107.19,128,75,102.25a8,8,0,1,1,10-12.5l40,32A8,8,0,0,1,128,128Zm48,24H136a8,8,0,0,0,0,16h40a8,8,0,0,0,0-16Zm56-96V200a16,16,0,0,1-16,16H40a16,16,0,0,1-16-16V56A16,16,0,0,1,40,40H216A16,16,0,0,1,232,56ZM216,200V56H40V200H216Z" /></svg><text x="584" y="246" fill="#aeb5be" font-family="Arial" font-size="14">Terminal 1</text><rect x="755" y="20" width="230" height="280" rx="10" fill="#25282c" stroke="#393d42" /><svg width="76" height="76" viewBox="0 0 24 24" fill="none" stroke="#d7dce3" stroke-width="2" stroke-linecap="round" stroke-linejoin="round" x="832" y="65">
  <path d="M12 19h8" />
  <path d="m4 17 6-6-6-6" />
</svg><text x="870" y="190" text-anchor="middle" fill="#d7dce3" font-family="Arial" font-size="13">D · Lucide Terminal</text><svg width="18" height="18" viewBox="0 0 24 24" fill="none" stroke="#aeb5be" stroke-width="2" stroke-linecap="round" stroke-linejoin="round" x="800" y="232">
  <path d="M12 19h8" />
  <path d="m4 17 6-6-6-6" />
</svg><text x="829" y="246" fill="#aeb5be" font-family="Arial" font-size="14">Terminal 1</text></svg>